<svg width="1920" height="127" viewBox="0 0 1920 127" fill="none" xmlns="http://www.w3.org/2000/svg">
<path opacity="0.32" d="M-15 63.5C49.5 -19.8333 114 -19.8333 178.5 63.5C243 146.833 307.5 146.833 372 63.5C436.5 -19.8333 501 -19.8333 565.5 63.5C630 146.833 694.5 146.833 759 63.5C823.5 -19.8333 888 -19.8333 952.5 63.5C1017 146.833 1081.5 146.833 1146 63.5C1210.5 -19.8333 1275 -19.8333 1339.5 63.5C1404 146.833 1468.5 146.833 1533 63.5C1597.5 -19.8333 1662 -19.8333 1726.5 63.5C1791 146.833 1855.5 146.833 1920 63.5" stroke="#673AB7" stroke-width="2"/>
</svg>
