<svg width="151" height="279" viewBox="0 0 151 279" fill="none" xmlns="http://www.w3.org/2000/svg">
<path d="M142.571 0.348175C144.058 -0.0503027 145.419 1.31053 145.02 2.79767L143.227 9.4898C142.829 10.9769 140.97 11.475 139.881 10.3864L134.982 5.48739C133.893 4.39873 134.392 2.5398 135.879 2.14133L142.571 0.348175Z" fill="#F0F0F0"/>
<path d="M157.42 15.1974C158.907 14.7989 160.268 16.1598 159.87 17.6469L158.076 24.339C157.678 25.8262 155.819 26.3243 154.73 25.2356L149.831 20.3366C148.743 19.248 149.241 17.389 150.728 16.9906L157.42 15.1974Z" fill="#F0F0F0"/>
<path d="M172.269 30.0467C173.756 29.6482 175.117 31.009 174.719 32.4961L172.926 39.1883C172.527 40.6754 170.668 41.1735 169.58 40.0849L164.681 35.1859C163.592 34.0972 164.09 32.2383 165.577 31.8398L172.269 30.0467Z" fill="#F0F0F0"/>
<path d="M187.119 44.8959C188.606 44.4974 189.966 45.8583 189.568 47.3454L187.775 54.0375C187.376 55.5247 185.517 56.0228 184.429 54.9341L179.53 50.0351C178.441 48.9465 178.939 47.0875 180.426 46.6891L187.119 44.8959Z" fill="#F0F0F0"/>
<path d="M201.968 59.7451C203.455 59.3467 204.816 60.7075 204.417 62.1946L202.624 68.8868C202.226 70.3739 200.367 70.872 199.278 69.7833L194.379 64.8844C193.29 63.7957 193.789 61.9368 195.276 61.5383L201.968 59.7451Z" fill="#F0F0F0"/>
<path d="M216.817 74.5944C218.304 74.1959 219.665 75.5567 219.267 77.0439L217.473 83.736C217.075 85.2231 215.216 85.7212 214.127 84.6326L209.228 79.7336C208.14 78.6449 208.638 76.786 210.125 76.3875L216.817 74.5944Z" fill="#F0F0F0"/>
<path d="M231.666 89.4436C233.153 89.0452 234.514 90.406 234.116 91.8931L232.323 98.5852C231.924 100.072 230.065 100.57 228.977 99.4818L224.078 94.5828C222.989 93.4942 223.487 91.6353 224.974 91.2368L231.666 89.4436Z" fill="#F0F0F0"/>
<path d="M246.515 104.293C248.003 103.894 249.363 105.255 248.965 106.742L247.172 113.434C246.773 114.922 244.914 115.42 243.826 114.331L238.927 109.432C237.838 108.343 238.336 106.484 239.823 106.086L246.515 104.293Z" fill="#F0F0F0"/>
<path d="M261.365 119.142C262.852 118.744 264.213 120.104 263.814 121.592L262.021 128.284C261.623 129.771 259.764 130.269 258.675 129.18L253.776 124.281C252.687 123.193 253.185 121.334 254.673 120.935L261.365 119.142Z" fill="#F0F0F0"/>
<path d="M276.214 133.991C277.701 133.593 279.062 134.954 278.663 136.441L276.87 143.133C276.472 144.62 274.613 145.118 273.524 144.03L268.625 139.131C267.537 138.042 268.035 136.183 269.522 135.785L276.214 133.991Z" fill="#F0F0F0"/>
<path d="M127.722 15.1974C129.209 14.7989 130.57 16.1598 130.171 17.6469L128.378 24.339C127.979 25.8262 126.12 26.3243 125.032 25.2356L120.133 20.3366C119.044 19.248 119.542 17.389 121.029 16.9906L127.722 15.1974Z" fill="#F0F0F0"/>
<path d="M142.571 30.0467C144.058 29.6482 145.419 31.009 145.02 32.4961L143.227 39.1883C142.829 40.6754 140.97 41.1735 139.881 40.0849L134.982 35.1859C133.893 34.0972 134.392 32.2383 135.879 31.8398L142.571 30.0467Z" fill="#F0F0F0"/>
<path d="M157.42 44.8959C158.907 44.4974 160.268 45.8582 159.87 47.3454L158.076 54.0375C157.678 55.5247 155.819 56.0228 154.73 54.9341L149.831 50.0351C148.743 48.9465 149.241 47.0875 150.728 46.6891L157.42 44.8959Z" fill="#F0F0F0"/>
<path d="M172.269 59.7451C173.756 59.3467 175.117 60.7075 174.719 62.1946L172.926 68.8868C172.527 70.3739 170.668 70.872 169.58 69.7833L164.681 64.8844C163.592 63.7957 164.09 61.9368 165.577 61.5383L172.269 59.7451Z" fill="#F0F0F0"/>
<path d="M187.119 74.5944C188.606 74.1959 189.966 75.5567 189.568 77.0439L187.775 83.736C187.376 85.2231 185.517 85.7212 184.429 84.6326L179.53 79.7336C178.441 78.6449 178.939 76.786 180.426 76.3875L187.119 74.5944Z" fill="#F0F0F0"/>
<path d="M201.968 89.4436C203.455 89.0452 204.816 90.406 204.417 91.8931L202.624 98.5852C202.226 100.072 200.367 100.57 199.278 99.4818L194.379 94.5828C193.29 93.4942 193.789 91.6353 195.276 91.2368L201.968 89.4436Z" fill="#F0F0F0"/>
<path d="M216.817 104.293C218.304 103.894 219.665 105.255 219.267 106.742L217.473 113.434C217.075 114.922 215.216 115.42 214.127 114.331L209.228 109.432C208.14 108.343 208.638 106.485 210.125 106.086L216.817 104.293Z" fill="#F0F0F0"/>
<path d="M231.666 119.142C233.153 118.744 234.514 120.104 234.116 121.592L232.323 128.284C231.924 129.771 230.065 130.269 228.977 129.18L224.078 124.281C222.989 123.193 223.487 121.334 224.974 120.935L231.666 119.142Z" fill="#F0F0F0"/>
<path d="M246.515 133.991C248.003 133.593 249.363 134.954 248.965 136.441L247.172 143.133C246.773 144.62 244.914 145.118 243.826 144.03L238.927 139.131C237.838 138.042 238.336 136.183 239.823 135.785L246.515 133.991Z" fill="#F0F0F0"/>
<path d="M261.365 148.841C262.852 148.442 264.213 149.803 263.814 151.29L262.021 157.982C261.623 159.469 259.764 159.967 258.675 158.879L253.776 153.98C252.687 152.891 253.185 151.032 254.673 150.634L261.365 148.841Z" fill="#F0F0F0"/>
<path d="M112.872 30.0467C114.359 29.6482 115.72 31.009 115.322 32.4961L113.529 39.1883C113.13 40.6754 111.271 41.1735 110.183 40.0849L105.284 35.1859C104.195 34.0972 104.693 32.2383 106.18 31.8398L112.872 30.0467Z" fill="#F0F0F0"/>
<path d="M127.722 44.8959C129.209 44.4974 130.57 45.8583 130.171 47.3454L128.378 54.0375C127.979 55.5247 126.12 56.0228 125.032 54.9341L120.133 50.0351C119.044 48.9465 119.542 47.0875 121.029 46.6891L127.722 44.8959Z" fill="#F0F0F0"/>
<path d="M142.571 59.7451C144.058 59.3467 145.419 60.7075 145.02 62.1946L143.227 68.8868C142.829 70.3739 140.97 70.872 139.881 69.7833L134.982 64.8844C133.893 63.7957 134.392 61.9368 135.879 61.5383L142.571 59.7451Z" fill="#F0F0F0"/>
<path d="M157.42 74.5944C158.907 74.1959 160.268 75.5567 159.87 77.0439L158.076 83.736C157.678 85.2231 155.819 85.7212 154.73 84.6326L149.831 79.7336C148.743 78.6449 149.241 76.786 150.728 76.3875L157.42 74.5944Z" fill="#F0F0F0"/>
<path d="M172.269 89.4436C173.756 89.0452 175.117 90.406 174.719 91.8931L172.926 98.5853C172.527 100.072 170.668 100.57 169.58 99.4818L164.681 94.5828C163.592 93.4942 164.09 91.6353 165.577 91.2368L172.269 89.4436Z" fill="#F0F0F0"/>
<path d="M187.119 104.293C188.606 103.894 189.966 105.255 189.568 106.742L187.775 113.434C187.376 114.922 185.517 115.42 184.429 114.331L179.53 109.432C178.441 108.343 178.939 106.485 180.426 106.086L187.119 104.293Z" fill="#F0F0F0"/>
<path d="M201.968 119.142C203.455 118.744 204.816 120.104 204.417 121.592L202.624 128.284C202.226 129.771 200.367 130.269 199.278 129.18L194.379 124.281C193.29 123.193 193.789 121.334 195.276 120.935L201.968 119.142Z" fill="#F0F0F0"/>
<path d="M216.817 133.991C218.304 133.593 219.665 134.954 219.267 136.441L217.473 143.133C217.075 144.62 215.216 145.118 214.127 144.03L209.228 139.131C208.14 138.042 208.638 136.183 210.125 135.785L216.817 133.991Z" fill="#F0F0F0"/>
<path d="M231.666 148.841C233.153 148.442 234.514 149.803 234.116 151.29L232.323 157.982C231.924 159.469 230.065 159.967 228.977 158.879L224.078 153.98C222.989 152.891 223.487 151.032 224.974 150.634L231.666 148.841Z" fill="#F0F0F0"/>
<path d="M246.515 163.69C248.003 163.291 249.363 164.652 248.965 166.139L247.172 172.831C246.773 174.319 244.914 174.817 243.826 173.728L238.927 168.829C237.838 167.74 238.336 165.881 239.823 165.483L246.515 163.69Z" fill="#F0F0F0"/>
<path d="M98.0231 44.8959C99.5102 44.4974 100.871 45.8583 100.473 47.3454L98.6794 54.0375C98.2809 55.5247 96.422 56.0228 95.3333 54.9341L90.4344 50.0351C89.3457 48.9465 89.8438 47.0875 91.3309 46.6891L98.0231 44.8959Z" fill="#F0F0F0"/>
<path d="M112.872 59.7451C114.359 59.3467 115.72 60.7075 115.322 62.1946L113.529 68.8868C113.13 70.3739 111.271 70.872 110.183 69.7833L105.284 64.8844C104.195 63.7957 104.693 61.9368 106.18 61.5383L112.872 59.7451Z" fill="#F0F0F0"/>
<path d="M127.722 74.5944C129.209 74.1959 130.57 75.5567 130.171 77.0439L128.378 83.736C127.979 85.2231 126.12 85.7212 125.032 84.6326L120.133 79.7336C119.044 78.6449 119.542 76.786 121.029 76.3875L127.722 74.5944Z" fill="#F0F0F0"/>
<path d="M142.571 89.4436C144.058 89.0452 145.419 90.406 145.02 91.8931L143.227 98.5852C142.829 100.072 140.97 100.57 139.881 99.4818L134.982 94.5828C133.893 93.4942 134.392 91.6353 135.879 91.2368L142.571 89.4436Z" fill="#F0F0F0"/>
<path d="M157.42 104.293C158.907 103.894 160.268 105.255 159.87 106.742L158.076 113.434C157.678 114.922 155.819 115.42 154.73 114.331L149.831 109.432C148.743 108.343 149.241 106.485 150.728 106.086L157.42 104.293Z" fill="#F0F0F0"/>
<path d="M172.269 119.142C173.756 118.744 175.117 120.104 174.719 121.592L172.926 128.284C172.527 129.771 170.668 130.269 169.58 129.18L164.681 124.281C163.592 123.193 164.09 121.334 165.577 120.935L172.269 119.142Z" fill="#F0F0F0"/>
<path d="M187.119 133.991C188.606 133.593 189.966 134.954 189.568 136.441L187.775 143.133C187.376 144.62 185.517 145.118 184.429 144.03L179.53 139.131C178.441 138.042 178.939 136.183 180.426 135.785L187.119 133.991Z" fill="#F0F0F0"/>
<path d="M201.968 148.841C203.455 148.442 204.816 149.803 204.417 151.29L202.624 157.982C202.226 159.469 200.367 159.967 199.278 158.879L194.379 153.98C193.29 152.891 193.788 151.032 195.276 150.634L201.968 148.841Z" fill="#F0F0F0"/>
<path d="M216.817 163.69C218.304 163.291 219.665 164.652 219.267 166.139L217.473 172.831C217.075 174.319 215.216 174.817 214.127 173.728L209.228 168.829C208.14 167.74 208.638 165.881 210.125 165.483L216.817 163.69Z" fill="#F0F0F0"/>
<path d="M231.666 178.539C233.153 178.141 234.514 179.501 234.116 180.989L232.323 187.681C231.924 189.168 230.065 189.666 228.977 188.577L224.078 183.678C222.989 182.59 223.487 180.731 224.974 180.332L231.666 178.539Z" fill="#F0F0F0"/>
<path d="M83.1738 59.7451C84.661 59.3467 86.0218 60.7075 85.6233 62.1946L83.8302 68.8868C83.4317 70.3739 81.5728 70.872 80.4841 69.7833L75.5851 64.8844C74.4965 63.7957 74.9946 61.9368 76.4817 61.5383L83.1738 59.7451Z" fill="#F0F0F0"/>
<path d="M98.0231 74.5944C99.5102 74.1959 100.871 75.5567 100.473 77.0439L98.6794 83.736C98.2809 85.2231 96.422 85.7212 95.3333 84.6326L90.4344 79.7336C89.3457 78.6449 89.8438 76.786 91.3309 76.3875L98.0231 74.5944Z" fill="#F0F0F0"/>
<path d="M112.872 89.4436C114.359 89.0451 115.72 90.406 115.322 91.8931L113.529 98.5852C113.13 100.072 111.271 100.57 110.183 99.4818L105.284 94.5828C104.195 93.4942 104.693 91.6353 106.18 91.2368L112.872 89.4436Z" fill="#F0F0F0"/>
<path d="M127.722 104.293C129.209 103.894 130.57 105.255 130.171 106.742L128.378 113.434C127.979 114.922 126.121 115.42 125.032 114.331L120.133 109.432C119.044 108.343 119.542 106.485 121.029 106.086L127.722 104.293Z" fill="#F0F0F0"/>
<path d="M142.571 119.142C144.058 118.744 145.419 120.104 145.02 121.592L143.227 128.284C142.829 129.771 140.97 130.269 139.881 129.18L134.982 124.281C133.893 123.193 134.392 121.334 135.879 120.935L142.571 119.142Z" fill="#F0F0F0"/>
<path d="M157.42 133.991C158.907 133.593 160.268 134.954 159.87 136.441L158.076 143.133C157.678 144.62 155.819 145.118 154.73 144.03L149.831 139.131C148.743 138.042 149.241 136.183 150.728 135.785L157.42 133.991Z" fill="#F0F0F0"/>
<path d="M172.269 148.841C173.756 148.442 175.117 149.803 174.719 151.29L172.926 157.982C172.527 159.469 170.668 159.967 169.58 158.879L164.681 153.98C163.592 152.891 164.09 151.032 165.577 150.634L172.269 148.841Z" fill="#F0F0F0"/>
<path d="M187.119 163.69C188.606 163.291 189.966 164.652 189.568 166.139L187.775 172.831C187.376 174.319 185.517 174.817 184.429 173.728L179.53 168.829C178.441 167.74 178.939 165.881 180.426 165.483L187.119 163.69Z" fill="#F0F0F0"/>
<path d="M201.968 178.539C203.455 178.141 204.816 179.501 204.417 180.989L202.624 187.681C202.226 189.168 200.367 189.666 199.278 188.577L194.379 183.678C193.29 182.59 193.788 180.731 195.276 180.332L201.968 178.539Z" fill="#F0F0F0"/>
<path d="M216.817 193.388C218.304 192.99 219.665 194.351 219.267 195.838L217.473 202.53C217.075 204.017 215.216 204.515 214.127 203.427L209.228 198.528C208.14 197.439 208.638 195.58 210.125 195.181L216.817 193.388Z" fill="#F0F0F0"/>
<path d="M68.3246 74.5944C69.8117 74.1959 71.1726 75.5567 70.7741 77.0439L68.9809 83.736C68.5825 85.2231 66.7235 85.7212 65.6349 84.6326L60.7359 79.7336C59.6472 78.6449 60.1453 76.786 61.6325 76.3875L68.3246 74.5944Z" fill="#F0F0F0"/>
<path d="M83.1738 89.4436C84.661 89.0451 86.0218 90.406 85.6233 91.8931L83.8302 98.5852C83.4317 100.072 81.5728 100.57 80.4841 99.4818L75.5851 94.5828C74.4965 93.4942 74.9946 91.6353 76.4817 91.2368L83.1738 89.4436Z" fill="#F0F0F0"/>
<path d="M98.0231 104.293C99.5102 103.894 100.871 105.255 100.473 106.742L98.6794 113.434C98.2809 114.922 96.422 115.42 95.3333 114.331L90.4344 109.432C89.3457 108.343 89.8438 106.485 91.3309 106.086L98.0231 104.293Z" fill="#F0F0F0"/>
<path d="M112.872 119.142C114.359 118.744 115.72 120.104 115.322 121.592L113.529 128.284C113.13 129.771 111.271 130.269 110.183 129.18L105.284 124.281C104.195 123.193 104.693 121.334 106.18 120.935L112.872 119.142Z" fill="#F0F0F0"/>
<path d="M127.722 133.991C129.209 133.593 130.57 134.954 130.171 136.441L128.378 143.133C127.979 144.62 126.121 145.118 125.032 144.03L120.133 139.131C119.044 138.042 119.542 136.183 121.029 135.785L127.722 133.991Z" fill="#F0F0F0"/>
<path d="M142.571 148.841C144.058 148.442 145.419 149.803 145.02 151.29L143.227 157.982C142.829 159.469 140.97 159.967 139.881 158.879L134.982 153.98C133.893 152.891 134.392 151.032 135.879 150.634L142.571 148.841Z" fill="#F0F0F0"/>
<path d="M157.42 163.69C158.907 163.291 160.268 164.652 159.87 166.139L158.076 172.831C157.678 174.319 155.819 174.817 154.73 173.728L149.831 168.829C148.743 167.74 149.241 165.881 150.728 165.483L157.42 163.69Z" fill="#F0F0F0"/>
<path d="M172.269 178.539C173.756 178.141 175.117 179.501 174.719 180.989L172.926 187.681C172.527 189.168 170.668 189.666 169.58 188.577L164.681 183.678C163.592 182.59 164.09 180.731 165.577 180.332L172.269 178.539Z" fill="#F0F0F0"/>
<path d="M187.119 193.388C188.606 192.99 189.966 194.351 189.568 195.838L187.775 202.53C187.376 204.017 185.517 204.515 184.429 203.427L179.53 198.528C178.441 197.439 178.939 195.58 180.426 195.181L187.119 193.388Z" fill="#F0F0F0"/>
<path d="M201.968 208.238C203.455 207.839 204.816 209.2 204.417 210.687L202.624 217.379C202.226 218.866 200.367 219.364 199.278 218.276L194.379 213.377C193.29 212.288 193.788 210.429 195.276 210.031L201.968 208.238Z" fill="#F0F0F0"/>
<path d="M53.4754 89.4436C54.9625 89.0451 56.3233 90.406 55.9248 91.8931L54.1317 98.5852C53.7332 100.072 51.8743 100.57 50.7856 99.4818L45.8866 94.5828C44.798 93.4942 45.2961 91.6353 46.7832 91.2368L53.4754 89.4436Z" fill="#F0F0F0"/>
<path d="M68.3246 104.293C69.8117 103.894 71.1726 105.255 70.7741 106.742L68.9809 113.434C68.5825 114.922 66.7235 115.42 65.6349 114.331L60.7359 109.432C59.6472 108.343 60.1453 106.484 61.6325 106.086L68.3246 104.293Z" fill="#F0F0F0"/>
<path d="M83.1738 119.142C84.661 118.744 86.0218 120.104 85.6233 121.592L83.8302 128.284C83.4317 129.771 81.5728 130.269 80.4841 129.18L75.5851 124.281C74.4965 123.193 74.9946 121.334 76.4817 120.935L83.1738 119.142Z" fill="#F0F0F0"/>
<path d="M98.0231 133.991C99.5102 133.593 100.871 134.954 100.473 136.441L98.6794 143.133C98.2809 144.62 96.422 145.118 95.3334 144.03L90.4344 139.131C89.3457 138.042 89.8438 136.183 91.3309 135.785L98.0231 133.991Z" fill="#F0F0F0"/>
<path d="M112.872 148.841C114.359 148.442 115.72 149.803 115.322 151.29L113.529 157.982C113.13 159.469 111.271 159.967 110.183 158.879L105.284 153.98C104.195 152.891 104.693 151.032 106.18 150.634L112.872 148.841Z" fill="#F0F0F0"/>
<path d="M127.722 163.69C129.209 163.291 130.57 164.652 130.171 166.139L128.378 172.831C127.979 174.319 126.121 174.817 125.032 173.728L120.133 168.829C119.044 167.74 119.542 165.881 121.029 165.483L127.722 163.69Z" fill="#F0F0F0"/>
<path d="M142.571 178.539C144.058 178.141 145.419 179.501 145.02 180.989L143.227 187.681C142.829 189.168 140.97 189.666 139.881 188.577L134.982 183.678C133.893 182.59 134.392 180.731 135.879 180.332L142.571 178.539Z" fill="#F0F0F0"/>
<path d="M157.42 193.388C158.907 192.99 160.268 194.351 159.87 195.838L158.076 202.53C157.678 204.017 155.819 204.515 154.73 203.427L149.831 198.528C148.743 197.439 149.241 195.58 150.728 195.181L157.42 193.388Z" fill="#F0F0F0"/>
<path d="M172.269 208.238C173.756 207.839 175.117 209.2 174.719 210.687L172.926 217.379C172.527 218.866 170.668 219.364 169.58 218.276L164.681 213.377C163.592 212.288 164.09 210.429 165.577 210.031L172.269 208.238Z" fill="#F0F0F0"/>
<path d="M187.119 223.087C188.606 222.688 189.966 224.049 189.568 225.536L187.775 232.228C187.376 233.716 185.517 234.214 184.429 233.125L179.53 228.226C178.441 227.137 178.939 225.278 180.426 224.88L187.119 223.087Z" fill="#F0F0F0"/>
<path d="M38.6261 104.293C40.1132 103.894 41.4741 105.255 41.0756 106.742L39.2824 113.434C38.884 114.922 37.025 115.42 35.9364 114.331L31.0374 109.432C29.9487 108.343 30.4468 106.484 31.934 106.086L38.6261 104.293Z" fill="#F0F0F0"/>
<path d="M53.4753 119.142C54.9625 118.744 56.3233 120.104 55.9248 121.592L54.1317 128.284C53.7332 129.771 51.8743 130.269 50.7856 129.18L45.8866 124.281C44.798 123.193 45.2961 121.334 46.7832 120.935L53.4753 119.142Z" fill="#F0F0F0"/>
<path d="M68.3246 133.991C69.8117 133.593 71.1726 134.954 70.7741 136.441L68.9809 143.133C68.5825 144.62 66.7235 145.118 65.6349 144.03L60.7359 139.131C59.6472 138.042 60.1453 136.183 61.6325 135.785L68.3246 133.991Z" fill="#F0F0F0"/>
<path d="M83.1738 148.841C84.661 148.442 86.0218 149.803 85.6233 151.29L83.8302 157.982C83.4317 159.469 81.5728 159.967 80.4841 158.879L75.5851 153.98C74.4965 152.891 74.9946 151.032 76.4817 150.634L83.1738 148.841Z" fill="#F0F0F0"/>
<path d="M98.0231 163.69C99.5102 163.291 100.871 164.652 100.473 166.139L98.6794 172.831C98.2809 174.319 96.422 174.817 95.3334 173.728L90.4344 168.829C89.3457 167.74 89.8438 165.881 91.3309 165.483L98.0231 163.69Z" fill="#F0F0F0"/>
<path d="M112.872 178.539C114.359 178.141 115.72 179.501 115.322 180.989L113.529 187.681C113.13 189.168 111.271 189.666 110.183 188.577L105.284 183.678C104.195 182.59 104.693 180.731 106.18 180.332L112.872 178.539Z" fill="#F0F0F0"/>
<path d="M127.722 193.388C129.209 192.99 130.57 194.351 130.171 195.838L128.378 202.53C127.979 204.017 126.12 204.515 125.032 203.427L120.133 198.528C119.044 197.439 119.542 195.58 121.029 195.181L127.722 193.388Z" fill="#F0F0F0"/>
<path d="M142.571 208.238C144.058 207.839 145.419 209.2 145.02 210.687L143.227 217.379C142.829 218.866 140.97 219.364 139.881 218.276L134.982 213.377C133.893 212.288 134.392 210.429 135.879 210.031L142.571 208.238Z" fill="#F0F0F0"/>
<path d="M157.42 223.087C158.907 222.688 160.268 224.049 159.87 225.536L158.076 232.228C157.678 233.716 155.819 234.214 154.73 233.125L149.831 228.226C148.743 227.137 149.241 225.278 150.728 224.88L157.42 223.087Z" fill="#F0F0F0"/>
<path d="M172.269 237.936C173.756 237.538 175.117 238.898 174.719 240.386L172.926 247.078C172.527 248.565 170.668 249.063 169.58 247.974L164.681 243.075C163.592 241.987 164.09 240.128 165.577 239.729L172.269 237.936Z" fill="#F0F0F0"/>
<path d="M23.7769 119.142C25.264 118.744 26.6248 120.104 26.2264 121.592L24.4332 128.284C24.0347 129.771 22.1758 130.269 21.0871 129.18L16.1882 124.281C15.0995 123.193 15.5976 121.334 17.0847 120.935L23.7769 119.142Z" fill="#F0F0F0"/>
<path d="M38.6261 133.991C40.1132 133.593 41.4741 134.954 41.0756 136.441L39.2824 143.133C38.884 144.62 37.025 145.118 35.9364 144.03L31.0374 139.131C29.9487 138.042 30.4468 136.183 31.934 135.785L38.6261 133.991Z" fill="#F0F0F0"/>
<path d="M53.4753 148.841C54.9625 148.442 56.3233 149.803 55.9248 151.29L54.1317 157.982C53.7332 159.469 51.8743 159.967 50.7856 158.879L45.8866 153.98C44.798 152.891 45.2961 151.032 46.7832 150.634L53.4753 148.841Z" fill="#F0F0F0"/>
<path d="M68.3246 163.69C69.8117 163.291 71.1726 164.652 70.7741 166.139L68.9809 172.831C68.5825 174.319 66.7235 174.817 65.6349 173.728L60.7359 168.829C59.6472 167.74 60.1453 165.881 61.6325 165.483L68.3246 163.69Z" fill="#F0F0F0"/>
<path d="M83.1738 178.539C84.661 178.141 86.0218 179.501 85.6233 180.989L83.8302 187.681C83.4317 189.168 81.5728 189.666 80.4841 188.577L75.5851 183.678C74.4965 182.59 74.9946 180.731 76.4817 180.332L83.1738 178.539Z" fill="#F0F0F0"/>
<path d="M98.0231 193.388C99.5102 192.99 100.871 194.351 100.473 195.838L98.6794 202.53C98.2809 204.017 96.422 204.515 95.3334 203.427L90.4344 198.528C89.3457 197.439 89.8438 195.58 91.3309 195.181L98.0231 193.388Z" fill="#F0F0F0"/>
<path d="M112.872 208.238C114.359 207.839 115.72 209.2 115.322 210.687L113.529 217.379C113.13 218.866 111.271 219.364 110.183 218.276L105.284 213.377C104.195 212.288 104.693 210.429 106.18 210.031L112.872 208.238Z" fill="#F0F0F0"/>
<path d="M127.722 223.087C129.209 222.688 130.57 224.049 130.171 225.536L128.378 232.228C127.979 233.716 126.12 234.214 125.032 233.125L120.133 228.226C119.044 227.137 119.542 225.278 121.029 224.88L127.722 223.087Z" fill="#F0F0F0"/>
<path d="M142.571 237.936C144.058 237.538 145.419 238.898 145.02 240.386L143.227 247.078C142.829 248.565 140.97 249.063 139.881 247.974L134.982 243.075C133.893 241.987 134.392 240.128 135.879 239.729L142.571 237.936Z" fill="#F0F0F0"/>
<path d="M157.42 252.785C158.907 252.387 160.268 253.748 159.87 255.235L158.076 261.927C157.678 263.414 155.819 263.912 154.73 262.823L149.831 257.925C148.743 256.836 149.241 254.977 150.728 254.578L157.42 252.785Z" fill="#F0F0F0"/>
<path d="M8.92762 133.991C10.4148 133.593 11.7756 134.954 11.3771 136.441L9.58396 143.133C9.18549 144.62 7.32656 145.118 6.2379 144.03L1.33892 139.131C0.250254 138.042 0.748356 136.183 2.23549 135.785L8.92762 133.991Z" fill="#F0F0F0"/>
<path d="M23.7769 148.841C25.264 148.442 26.6248 149.803 26.2264 151.29L24.4332 157.982C24.0347 159.469 22.1758 159.967 21.0871 158.879L16.1882 153.98C15.0995 152.891 15.5976 151.032 17.0847 150.634L23.7769 148.841Z" fill="#F0F0F0"/>
<path d="M38.6261 163.69C40.1132 163.291 41.4741 164.652 41.0756 166.139L39.2824 172.831C38.884 174.319 37.025 174.817 35.9364 173.728L31.0374 168.829C29.9487 167.74 30.4468 165.881 31.934 165.483L38.6261 163.69Z" fill="#F0F0F0"/>
<path d="M53.4754 178.539C54.9625 178.141 56.3233 179.501 55.9248 180.989L54.1317 187.681C53.7332 189.168 51.8743 189.666 50.7856 188.577L45.8866 183.678C44.798 182.59 45.2961 180.731 46.7832 180.332L53.4754 178.539Z" fill="#F0F0F0"/>
<path d="M68.3246 193.388C69.8117 192.99 71.1726 194.351 70.7741 195.838L68.9809 202.53C68.5825 204.017 66.7235 204.515 65.6349 203.427L60.7359 198.528C59.6472 197.439 60.1453 195.58 61.6325 195.181L68.3246 193.388Z" fill="#F0F0F0"/>
<path d="M83.1738 208.238C84.661 207.839 86.0218 209.2 85.6233 210.687L83.8302 217.379C83.4317 218.866 81.5728 219.364 80.4841 218.276L75.5851 213.377C74.4965 212.288 74.9946 210.429 76.4817 210.031L83.1738 208.238Z" fill="#F0F0F0"/>
<path d="M98.0231 223.087C99.5102 222.688 100.871 224.049 100.473 225.536L98.6794 232.228C98.2809 233.716 96.422 234.214 95.3333 233.125L90.4344 228.226C89.3457 227.137 89.8438 225.278 91.3309 224.88L98.0231 223.087Z" fill="#F0F0F0"/>
<path d="M112.872 237.936C114.359 237.538 115.72 238.898 115.322 240.386L113.529 247.078C113.13 248.565 111.271 249.063 110.183 247.974L105.284 243.075C104.195 241.987 104.693 240.128 106.18 239.729L112.872 237.936Z" fill="#F0F0F0"/>
<path d="M127.722 252.785C129.209 252.387 130.57 253.748 130.171 255.235L128.378 261.927C127.979 263.414 126.12 263.912 125.032 262.823L120.133 257.925C119.044 256.836 119.542 254.977 121.029 254.578L127.722 252.785Z" fill="#F0F0F0"/>
<path d="M142.571 267.635C144.058 267.236 145.419 268.597 145.02 270.084L143.227 276.776C142.829 278.263 140.97 278.761 139.881 277.673L134.982 272.774C133.893 271.685 134.392 269.826 135.879 269.428L142.571 267.635Z" fill="#F0F0F0"/>
</svg>
