<svg width="151" height="279" viewBox="0 0 151 279" fill="none" xmlns="http://www.w3.org/2000/svg">
<g clip-path="url(#clip0)">
<path d="M8.42899 278.652C6.94199 279.05 5.58099 277.689 5.97999 276.202L7.77299 269.51C8.17099 268.023 10.03 267.525 11.119 268.614L16.018 273.513C17.107 274.601 16.608 276.46 15.121 276.859L8.42899 278.652Z" fill="#F0F0F0"/>
<path d="M-6.41999 263.803C-7.90699 264.201 -9.26799 262.84 -8.86999 261.353L-7.076 254.661C-6.678 253.174 -4.81899 252.676 -3.72999 253.764L1.16901 258.663C2.25701 259.752 1.75901 261.611 0.272009 262.009L-6.41999 263.803Z" fill="#F0F0F0"/>
<path d="M23.278 263.803C21.791 264.201 20.43 262.84 20.829 261.353L22.622 254.661C23.021 253.174 24.88 252.676 25.968 253.764L30.867 258.663C31.956 259.752 31.458 261.611 29.971 262.009L23.278 263.803Z" fill="#F0F0F0"/>
<path d="M8.42899 248.953C6.94199 249.352 5.58099 247.991 5.97999 246.504L7.77299 239.812C8.17099 238.325 10.03 237.827 11.119 238.915L16.018 243.814C17.107 244.903 16.608 246.762 15.121 247.16L8.42899 248.953Z" fill="#F0F0F0"/>
<path d="M-6.41999 234.104C-7.90699 234.503 -9.26799 233.142 -8.86999 231.655L-7.076 224.962C-6.678 223.475 -4.81899 222.977 -3.72999 224.066L1.16901 228.965C2.25701 230.053 1.75901 231.912 0.272009 232.311L-6.41999 234.104Z" fill="#F0F0F0"/>
<path d="M38.128 248.953C36.641 249.352 35.28 247.991 35.678 246.504L37.471 239.812C37.87 238.325 39.729 237.827 40.817 238.915L45.716 243.814C46.805 244.903 46.307 246.762 44.82 247.16L38.128 248.953Z" fill="#F0F0F0"/>
<path d="M23.278 234.104C21.791 234.503 20.43 233.142 20.829 231.655L22.622 224.962C23.021 223.475 24.88 222.977 25.968 224.066L30.867 228.965C31.956 230.053 31.458 231.912 29.971 232.311L23.278 234.104Z" fill="#F0F0F0"/>
<path d="M8.42899 219.255C6.94199 219.653 5.58099 218.293 5.97999 216.805L7.77299 210.113C8.17099 208.626 10.03 208.128 11.119 209.217L16.018 214.116C17.107 215.204 16.608 217.063 15.121 217.462L8.42899 219.255Z" fill="#F0F0F0"/>
<path d="M-6.41999 204.406C-7.90699 204.804 -9.26799 203.443 -8.86999 201.956L-7.076 195.264C-6.678 193.777 -4.81899 193.279 -3.72999 194.367L1.16901 199.266C2.25701 200.355 1.75901 202.214 0.272009 202.613L-6.41999 204.406Z" fill="#F0F0F0"/>
<path d="M52.9769 234.104C51.4898 234.503 50.129 233.142 50.527 231.655L52.3206 224.962C52.7191 223.475 54.578 222.977 55.6667 224.066L60.5656 228.965C61.6543 230.053 61.1562 231.912 59.6691 232.311L52.9769 234.104Z" fill="#F0F0F0"/>
<path d="M38.128 219.255C36.641 219.653 35.28 218.293 35.678 216.805L37.471 210.113C37.87 208.626 39.729 208.128 40.817 209.217L45.716 214.116C46.805 215.204 46.307 217.063 44.82 217.462L38.128 219.255Z" fill="#F0F0F0"/>
<path d="M23.278 204.406C21.791 204.804 20.43 203.443 20.829 201.956L22.622 195.264C23.021 193.777 24.88 193.279 25.968 194.367L30.867 199.266C31.956 200.355 31.458 202.214 29.971 202.613L23.278 204.406Z" fill="#F0F0F0"/>
<path d="M8.42899 189.556C6.94199 189.955 5.58099 188.594 5.97999 187.107L7.77299 180.415C8.17099 178.928 10.03 178.43 11.119 179.518L16.018 184.417C17.107 185.506 16.608 187.365 15.121 187.763L8.42899 189.556Z" fill="#F0F0F0"/>
<path d="M-6.41999 174.707C-7.90699 175.106 -9.26799 173.745 -8.86999 172.258L-7.076 165.566C-6.678 164.078 -4.81899 163.58 -3.72999 164.669L1.16901 169.568C2.25701 170.657 1.75901 172.515 0.272009 172.914L-6.41999 174.707Z" fill="#F0F0F0"/>
<path d="M67.8262 219.255C66.339 219.653 64.9782 218.293 65.3767 216.805L67.1698 210.113C67.5683 208.626 69.4272 208.128 70.5159 209.217L75.4149 214.116C76.5035 215.204 76.0054 217.063 74.5183 217.462L67.8262 219.255Z" fill="#F0F0F0"/>
<path d="M52.9769 204.406C51.4898 204.804 50.129 203.443 50.527 201.956L52.3206 195.264C52.7191 193.777 54.578 193.279 55.6667 194.367L60.5656 199.266C61.6543 200.355 61.1562 202.214 59.6691 202.613L52.9769 204.406Z" fill="#F0F0F0"/>
<path d="M38.128 189.556C36.641 189.955 35.28 188.594 35.678 187.107L37.471 180.415C37.87 178.928 39.729 178.43 40.817 179.518L45.716 184.417C46.805 185.506 46.307 187.365 44.82 187.763L38.128 189.556Z" fill="#F0F0F0"/>
<path d="M23.278 174.707C21.791 175.106 20.43 173.745 20.829 172.258L22.622 165.566C23.021 164.078 24.879 163.58 25.968 164.669L30.867 169.568C31.956 170.657 31.458 172.515 29.971 172.914L23.278 174.707Z" fill="#F0F0F0"/>
<path d="M8.42899 159.858C6.94199 160.256 5.58099 158.896 5.97999 157.408L7.77299 150.716C8.17099 149.229 10.03 148.731 11.119 149.82L16.018 154.719C17.107 155.807 16.608 157.666 15.121 158.065L8.42899 159.858Z" fill="#F0F0F0"/>
<path d="M-6.41999 145.009C-7.90699 145.407 -9.26799 144.046 -8.86999 142.559L-7.076 135.867C-6.678 134.38 -4.81899 133.882 -3.72999 134.97L1.16901 139.869C2.25701 140.958 1.75901 142.817 0.272009 143.215L-6.41999 145.009Z" fill="#F0F0F0"/>
<path d="M82.6754 204.406C81.1883 204.804 79.8274 203.443 80.2259 201.956L82.0191 195.264C82.4175 193.777 84.2765 193.279 85.3651 194.367L90.2641 199.266C91.3528 200.355 90.8547 202.214 89.3675 202.613L82.6754 204.406Z" fill="#F0F0F0"/>
<path d="M67.8262 189.556C66.339 189.955 64.9782 188.594 65.3767 187.107L67.1698 180.415C67.5683 178.928 69.4272 178.43 70.5159 179.518L75.4149 184.417C76.5035 185.506 76.0054 187.365 74.5183 187.763L67.8262 189.556Z" fill="#F0F0F0"/>
<path d="M52.9769 174.707C51.4898 175.106 50.129 173.745 50.527 172.258L52.3206 165.566C52.7191 164.078 54.578 163.58 55.6667 164.669L60.5656 169.568C61.6543 170.657 61.1562 172.515 59.6691 172.914L52.9769 174.707Z" fill="#F0F0F0"/>
<path d="M38.128 159.858C36.641 160.256 35.28 158.896 35.678 157.408L37.471 150.716C37.87 149.229 39.729 148.731 40.817 149.82L45.716 154.719C46.805 155.807 46.307 157.666 44.82 158.065L38.128 159.858Z" fill="#F0F0F0"/>
<path d="M23.278 145.009C21.791 145.407 20.43 144.046 20.829 142.559L22.622 135.867C23.021 134.38 24.879 133.882 25.968 134.97L30.867 139.869C31.956 140.958 31.458 142.817 29.971 143.215L23.278 145.009Z" fill="#F0F0F0"/>
<path d="M8.42899 130.159C6.94199 130.558 5.58099 129.197 5.97999 127.71L7.77299 121.018C8.17099 119.531 10.03 119.033 11.119 120.121L16.018 125.02C17.107 126.109 16.608 127.968 15.121 128.366L8.42899 130.159Z" fill="#F0F0F0"/>
<path d="M-6.41999 115.31C-7.90699 115.709 -9.26799 114.348 -8.86999 112.861L-7.076 106.169C-6.678 104.681 -4.81899 104.183 -3.72999 105.272L1.16901 110.171C2.25701 111.26 1.75901 113.119 0.272009 113.517L-6.41999 115.31Z" fill="#F0F0F0"/>
<path d="M97.5246 189.556C96.0375 189.955 94.6767 188.594 95.0752 187.107L96.8683 180.415C97.2668 178.928 99.1257 178.43 100.214 179.518L105.113 184.417C106.202 185.506 105.704 187.365 104.217 187.763L97.5246 189.556Z" fill="#F0F0F0"/>
<path d="M82.6754 174.707C81.1883 175.106 79.8274 173.745 80.2259 172.258L82.0191 165.566C82.4175 164.078 84.2765 163.58 85.3651 164.669L90.2641 169.568C91.3528 170.657 90.8547 172.516 89.3675 172.914L82.6754 174.707Z" fill="#F0F0F0"/>
<path d="M67.8262 159.858C66.339 160.256 64.9782 158.896 65.3767 157.408L67.1698 150.716C67.5683 149.229 69.4272 148.731 70.5159 149.82L75.4149 154.719C76.5035 155.807 76.0054 157.666 74.5183 158.065L67.8262 159.858Z" fill="#F0F0F0"/>
<path d="M52.9769 145.009C51.4898 145.407 50.129 144.046 50.527 142.559L52.3206 135.867C52.7191 134.38 54.578 133.882 55.6666 134.97L60.5656 139.869C61.6543 140.958 61.1562 142.817 59.6691 143.215L52.9769 145.009Z" fill="#F0F0F0"/>
<path d="M38.128 130.159C36.641 130.558 35.28 129.197 35.678 127.71L37.471 121.018C37.87 119.531 39.729 119.033 40.817 120.121L45.716 125.02C46.805 126.109 46.307 127.968 44.82 128.366L38.128 130.159Z" fill="#F0F0F0"/>
<path d="M23.278 115.31C21.791 115.709 20.43 114.348 20.829 112.861L22.622 106.169C23.021 104.681 24.879 104.183 25.968 105.272L30.867 110.171C31.956 111.26 31.458 113.119 29.971 113.517L23.278 115.31Z" fill="#F0F0F0"/>
<path d="M8.42899 100.461C6.94199 100.859 5.58099 99.499 5.97999 98.011L7.77299 91.319C8.17099 89.832 10.03 89.334 11.119 90.423L16.018 95.322C17.107 96.41 16.608 98.269 15.121 98.668L8.42899 100.461Z" fill="#F0F0F0"/>
<path d="M-6.41999 85.612C-7.90699 86.01 -9.26799 84.649 -8.86999 83.162L-7.076 76.47C-6.678 74.983 -4.81899 74.485 -3.72999 75.573L1.16901 80.472C2.25701 81.561 1.75901 83.42 0.272009 83.819L-6.41999 85.612Z" fill="#F0F0F0"/>
<path d="M112.374 174.707C110.887 175.106 109.526 173.745 109.924 172.258L111.718 165.566C112.116 164.078 113.975 163.58 115.064 164.669L119.963 169.568C121.051 170.657 120.553 172.516 119.066 172.914L112.374 174.707Z" fill="#F0F0F0"/>
<path d="M97.5247 159.858C96.0375 160.256 94.6767 158.896 95.0752 157.408L96.8683 150.716C97.2668 149.229 99.1257 148.731 100.214 149.82L105.113 154.719C106.202 155.807 105.704 157.666 104.217 158.065L97.5247 159.858Z" fill="#F0F0F0"/>
<path d="M82.6754 145.009C81.1883 145.407 79.8274 144.046 80.2259 142.559L82.0191 135.867C82.4175 134.38 84.2765 133.882 85.3651 134.97L90.2641 139.869C91.3528 140.958 90.8547 142.817 89.3675 143.215L82.6754 145.009Z" fill="#F0F0F0"/>
<path d="M67.8262 130.159C66.339 130.558 64.9782 129.197 65.3767 127.71L67.1698 121.018C67.5683 119.531 69.4272 119.033 70.5159 120.121L75.4149 125.02C76.5035 126.109 76.0054 127.968 74.5183 128.366L67.8262 130.159Z" fill="#F0F0F0"/>
<path d="M52.9769 115.31C51.4898 115.709 50.129 114.348 50.527 112.861L52.3206 106.169C52.7191 104.681 54.578 104.183 55.6666 105.272L60.5656 110.171C61.6543 111.26 61.1562 113.119 59.6691 113.517L52.9769 115.31Z" fill="#F0F0F0"/>
<path d="M38.128 100.461C36.641 100.859 35.28 99.499 35.678 98.011L37.471 91.319C37.87 89.832 39.729 89.334 40.817 90.423L45.716 95.322C46.805 96.41 46.307 98.269 44.82 98.668L38.128 100.461Z" fill="#F0F0F0"/>
<path d="M23.278 85.612C21.791 86.01 20.43 84.649 20.829 83.162L22.622 76.47C23.021 74.983 24.88 74.485 25.968 75.573L30.867 80.472C31.956 81.561 31.458 83.42 29.971 83.819L23.278 85.612Z" fill="#F0F0F0"/>
<path d="M8.42899 70.762C6.94199 71.161 5.58099 69.8 5.97999 68.313L7.77299 61.621C8.17099 60.134 10.03 59.636 11.119 60.724L16.018 65.623C17.107 66.712 16.608 68.571 15.121 68.969L8.42899 70.762Z" fill="#F0F0F0"/>
<path d="M-6.41999 55.913C-7.90699 56.312 -9.26799 54.951 -8.86999 53.464L-7.076 46.772C-6.678 45.284 -4.81899 44.786 -3.72999 45.875L1.16901 50.774C2.25701 51.863 1.75901 53.722 0.272009 54.12L-6.41999 55.913Z" fill="#F0F0F0"/>
<path d="M127.223 159.858C125.736 160.256 124.375 158.896 124.774 157.408L126.567 150.716C126.965 149.229 128.824 148.731 129.913 149.82L134.812 154.719C135.9 155.807 135.402 157.666 133.915 158.065L127.223 159.858Z" fill="#F0F0F0"/>
<path d="M112.374 145.009C110.887 145.407 109.526 144.046 109.924 142.559L111.718 135.867C112.116 134.38 113.975 133.882 115.064 134.97L119.963 139.869C121.051 140.958 120.553 142.817 119.066 143.215L112.374 145.009Z" fill="#F0F0F0"/>
<path d="M97.5247 130.159C96.0375 130.558 94.6767 129.197 95.0752 127.71L96.8683 121.018C97.2668 119.531 99.1257 119.033 100.214 120.121L105.113 125.02C106.202 126.109 105.704 127.968 104.217 128.366L97.5247 130.159Z" fill="#F0F0F0"/>
<path d="M82.6754 115.31C81.1883 115.709 79.8274 114.348 80.2259 112.861L82.0191 106.169C82.4175 104.681 84.2765 104.183 85.3651 105.272L90.2641 110.171C91.3528 111.26 90.8547 113.119 89.3675 113.517L82.6754 115.31Z" fill="#F0F0F0"/>
<path d="M67.8262 100.461C66.339 100.859 64.9782 99.499 65.3767 98.011L67.1698 91.319C67.5683 89.832 69.4272 89.334 70.5159 90.423L75.4149 95.322C76.5035 96.41 76.0054 98.269 74.5183 98.668L67.8262 100.461Z" fill="#F0F0F0"/>
<path d="M52.9769 85.612C51.4898 86.01 50.129 84.649 50.527 83.162L52.3206 76.47C52.7191 74.983 54.578 74.485 55.6666 75.573L60.5656 80.472C61.6543 81.561 61.1562 83.42 59.6691 83.819L52.9769 85.612Z" fill="#F0F0F0"/>
<path d="M38.128 70.762C36.641 71.161 35.28 69.8 35.678 68.313L37.471 61.621C37.87 60.134 39.729 59.636 40.817 60.724L45.716 65.623C46.805 66.712 46.307 68.571 44.82 68.969L38.128 70.762Z" fill="#F0F0F0"/>
<path d="M23.278 55.913C21.791 56.312 20.43 54.951 20.829 53.464L22.622 46.772C23.021 45.284 24.88 44.786 25.968 45.875L30.867 50.774C31.956 51.863 31.458 53.722 29.971 54.12L23.278 55.913Z" fill="#F0F0F0"/>
<path d="M8.42899 41.064C6.94199 41.462 5.58099 40.102 5.97999 38.614L7.77299 31.922C8.17099 30.435 10.03 29.937 11.119 31.026L16.018 35.925C17.107 37.013 16.608 38.872 15.121 39.271L8.42899 41.064Z" fill="#F0F0F0"/>
<path d="M-6.41999 26.215C-7.90699 26.613 -9.26799 25.252 -8.86999 23.765L-7.076 17.073C-6.678 15.586 -4.81899 15.088 -3.72999 16.177L1.16901 21.075C2.25701 22.164 1.75901 24.023 0.272009 24.422L-6.41999 26.215Z" fill="#F0F0F0"/>
<path d="M142.072 145.009C140.585 145.407 139.224 144.046 139.623 142.559L141.416 135.867C141.815 134.38 143.673 133.882 144.762 134.97L149.661 139.869C150.75 140.958 150.252 142.817 148.765 143.215L142.072 145.009Z" fill="#F0F0F0"/>
<path d="M127.223 130.159C125.736 130.558 124.375 129.197 124.774 127.71L126.567 121.018C126.965 119.531 128.824 119.033 129.913 120.121L134.812 125.02C135.9 126.109 135.402 127.968 133.915 128.366L127.223 130.159Z" fill="#F0F0F0"/>
<path d="M112.374 115.31C110.887 115.709 109.526 114.348 109.924 112.861L111.718 106.169C112.116 104.681 113.975 104.183 115.064 105.272L119.963 110.171C121.051 111.26 120.553 113.119 119.066 113.517L112.374 115.31Z" fill="#F0F0F0"/>
<path d="M97.5246 100.461C96.0375 100.859 94.6767 99.499 95.0752 98.011L96.8683 91.319C97.2668 89.832 99.1257 89.334 100.214 90.423L105.113 95.322C106.202 96.41 105.704 98.269 104.217 98.668L97.5246 100.461Z" fill="#F0F0F0"/>
<path d="M82.6754 85.612C81.1883 86.01 79.8274 84.649 80.2259 83.162L82.0191 76.47C82.4175 74.983 84.2765 74.485 85.3651 75.573L90.2641 80.472C91.3528 81.561 90.8547 83.42 89.3675 83.819L82.6754 85.612Z" fill="#F0F0F0"/>
<path d="M67.8262 70.762C66.339 71.161 64.9782 69.8 65.3767 68.313L67.1698 61.621C67.5683 60.134 69.4272 59.636 70.5159 60.724L75.4149 65.623C76.5035 66.712 76.0054 68.571 74.5183 68.969L67.8262 70.762Z" fill="#F0F0F0"/>
<path d="M52.9769 55.913C51.4898 56.312 50.129 54.951 50.527 53.464L52.3206 46.772C52.7191 45.284 54.578 44.786 55.6667 45.875L60.5656 50.774C61.6543 51.863 61.1562 53.722 59.6691 54.12L52.9769 55.913Z" fill="#F0F0F0"/>
<path d="M38.128 41.064C36.641 41.462 35.28 40.102 35.678 38.614L37.471 31.922C37.87 30.435 39.729 29.937 40.817 31.026L45.716 35.925C46.805 37.013 46.307 38.872 44.82 39.271L38.128 41.064Z" fill="#F0F0F0"/>
<path d="M23.278 26.215C21.791 26.613 20.43 25.252 20.829 23.765L22.622 17.073C23.021 15.586 24.88 15.088 25.968 16.177L30.867 21.075C31.956 22.164 31.458 24.023 29.971 24.422L23.278 26.215Z" fill="#F0F0F0"/>
<path d="M8.42899 11.365C6.94199 11.764 5.58099 10.403 5.97999 8.91599L7.77299 2.224C8.17099 0.737002 10.03 0.238999 11.119 1.327L16.018 6.22602C17.107 7.31502 16.608 9.17399 15.121 9.57199L8.42899 11.365Z" fill="#F0F0F0"/>
</g>
<defs>
<clipPath id="clip0">
<rect width="151" height="279" fill="white" transform="translate(151 279) rotate(-180)"/>
</clipPath>
</defs>
</svg>
